<svg width="147" height="36" viewBox="0 0 147 36" fill="none" xmlns="http://www.w3.org/2000/svg">
<rect width="147" height="36" fill="white"/>
<path d="M49.3394 12.4545H46.2642V27H49.3394V12.4545Z" fill="#0B0B14"/>
<path d="M54.8384 20.6932C54.8455 19.2869 55.6835 18.463 56.9051 18.463C58.1196 18.463 58.8512 19.2585 58.8441 20.5937V27H61.8696V20.054C61.8696 17.5113 60.3782 15.9488 58.1054 15.9488C56.4861 15.9488 55.3142 16.7443 54.8242 18.0156H54.6963V16.0909H51.8128V27H54.8384V20.6932Z" fill="#0B0B14"/>
<path d="M70.0568 16.0909H68.0042V13.4773H64.9786V16.0909H63.4872V18.3636H64.9786V24.0454C64.9644 26.1832 66.4204 27.2415 68.615 27.1491C69.3963 27.1207 69.9502 26.9645 70.2556 26.865L69.7798 24.6136C69.6306 24.642 69.311 24.713 69.0269 24.713C68.4233 24.713 68.0042 24.4858 68.0042 23.6477V18.3636H70.0568V16.0909Z" fill="#0B0B14"/>
<path d="M76.8821 27.213C79.5809 27.213 81.3991 25.8991 81.8252 23.875L79.0269 23.6903C78.7215 24.5213 77.9403 24.9545 76.9318 24.9545C75.419 24.9545 74.4602 23.9531 74.4602 22.3267V22.3196H81.8892V21.4886C81.8892 17.7812 79.6448 15.9488 76.7613 15.9488C73.5511 15.9488 71.4701 18.2287 71.4701 21.5951C71.4701 25.054 73.5227 27.213 76.8821 27.213ZM74.4602 20.4446C74.5241 19.2017 75.4687 18.2074 76.811 18.2074C78.125 18.2074 79.034 19.1449 79.0411 20.4446H74.4602Z" fill="#0B0B14"/>
<path d="M83.8636 27H86.8892V20.8281C86.8892 19.4858 87.8693 18.5625 89.2045 18.5625C89.6235 18.5625 90.1988 18.6335 90.4829 18.7258V16.0412C90.213 15.9773 89.8366 15.9346 89.5312 15.9346C88.3096 15.9346 87.3082 16.6449 86.9105 17.9943H86.7968V16.0909H83.8636V27Z" fill="#0B0B14"/>
<path d="M95.0728 20.6932C95.0799 19.2869 95.9179 18.463 97.1395 18.463C98.354 18.463 99.0855 19.2585 99.0784 20.5937V27H102.104V20.054C102.104 17.5113 100.613 15.9488 98.3398 15.9488C96.7205 15.9488 95.5486 16.7443 95.0585 18.0156H94.9307V16.0909H92.0472V27H95.0728V20.6932Z" fill="#0B0B14"/>
<path d="M110.355 16.0909H108.189V15.3594C108.189 14.6207 108.487 14.1875 109.375 14.1875C109.737 14.1875 110.106 14.2656 110.348 14.3437L110.881 12.071C110.504 11.9574 109.673 11.7727 108.743 11.7727C106.69 11.7727 105.163 12.9304 105.163 15.3025V16.0909H103.622V18.3636H105.163V27H108.189V18.3636H110.355V16.0909Z" fill="#0B0B14"/>
<path d="M116.784 27.213C119.483 27.213 121.301 25.8991 121.728 23.875L118.929 23.6903C118.624 24.5213 117.843 24.9545 116.834 24.9545C115.321 24.9545 114.363 23.9531 114.363 22.3267V22.3196H121.792V21.4886C121.792 17.7812 119.547 15.9488 116.664 15.9488C113.453 15.9488 111.372 18.2287 111.372 21.5951C111.372 25.054 113.425 27.213 116.784 27.213ZM114.363 20.4446C114.426 19.2017 115.371 18.2074 116.713 18.2074C118.027 18.2074 118.936 19.1449 118.943 20.4446H114.363Z" fill="#0B0B14"/>
<path d="M128.738 27.213C131.436 27.213 133.255 25.8991 133.681 23.875L130.882 23.6903C130.577 24.5213 129.796 24.9545 128.787 24.9545C127.274 24.9545 126.316 23.9531 126.316 22.3267V22.3196H133.745V21.4886C133.745 17.7812 131.5 15.9488 128.617 15.9488C125.407 15.9488 123.326 18.2287 123.326 21.5951C123.326 25.054 125.378 27.213 128.738 27.213ZM126.316 20.4446C126.38 19.2017 127.324 18.2074 128.667 18.2074C129.98 18.2074 130.89 19.1449 130.897 20.4446H126.316Z" fill="#0B0B14"/>
<path d="M139.739 27.1775C141.5 27.1775 142.416 26.1619 142.836 25.2528H142.963V27H145.946V12.4545H142.928V17.9233H142.836C142.431 17.0355 141.557 15.9488 139.732 15.9488C137.338 15.9488 135.314 17.8096 135.314 21.5596C135.314 25.2102 137.253 27.1775 139.739 27.1775ZM140.698 24.7699C139.213 24.7699 138.404 23.4488 138.404 21.5454C138.404 19.6562 139.199 18.3565 140.698 18.3565C142.168 18.3565 142.992 19.5994 142.992 21.5454C142.992 23.4915 142.154 24.7699 140.698 24.7699Z" fill="#0B0B14"/>
<path fill-rule="evenodd" clip-rule="evenodd" d="M1.25751 2.03369L31.2575 10.0337V11.9662L8.63089 17.9999H30.9998L31.196 19.9805L11.0989 23.9999H30.9998L31.196 25.9805L11.0989 29.9999H30.9998V31.9999H0.99985L0.803734 30.0193L20.9008 25.9999H0.99985L0.803734 24.0193L20.9008 19.9999H0.99985L0.742188 18.0337L27.1188 10.9999L0.742188 3.96616L1.25751 2.03369Z" fill="#0B0B14"/>
</svg>
